<svg width="678" height="576" viewBox="0 0 678 576" fill="none" xmlns="http://www.w3.org/2000/svg">
<g clip-path="url(#clip0_32_466)">
<path d="M654.272 240.764C620.366 284.124 556.387 294.053 503.45 278.951C486.129 273.889 469.419 266.932 453.623 258.208C444.447 253.225 435.492 247.759 426.719 241.935C424.56 240.508 422.402 239.06 420.265 237.582C418.809 236.587 417.358 235.579 415.912 234.56C397.795 221.814 380.389 207.831 363.275 193.93C320.552 159.226 276.658 123.454 224.167 106.896C213.353 103.486 199.363 101.891 192.676 111.052C186.874 119.005 190.415 130.266 195.324 138.797C213.536 170.399 246.593 190.352 279.68 205.695C312.766 221.038 347.814 233.47 376.576 255.903C405.339 278.336 427.297 313.991 421.414 349.983C416.343 380.999 391.02 406.198 361.577 417.18C332.134 428.155 299.296 426.626 268.69 419.5C238.084 412.366 209.029 399.92 179.491 389.193C161.682 382.718 138.4 378.24 126.583 393.057C116.603 405.576 122.339 425.324 134.492 435.743C146.645 446.162 163.094 449.652 178.788 452.784C227.518 462.515 276.248 472.244 324.979 481.971C339.927 484.949 355.226 488.066 368.25 495.997C381.274 503.921 391.781 517.764 391.408 533.005C391.035 548.027 380.038 561.3 366.56 567.951C353.09 574.594 337.534 575.619 322.527 574.901C266.29 572.209 105.064 482.863 66.3948 471.442C41.5468 464.11 14.3796 453.34 3.90172 429.648C-9.14423 400.154 12.3236 364.47 41.6273 351C70.9238 337.522 104.888 340.507 136.819 345.044C168.75 349.58 201.734 355.353 232.816 346.734C263.897 338.115 292.375 310.018 289.309 277.912C286.638 249.976 261.476 228.926 234.996 219.648C214.268 212.383 192.215 210.407 170.44 207.136C164.396 206.236 158.374 205.227 152.411 203.983C137.14 200.783 122.243 196.001 107.962 189.715C92.9756 183.132 78.7386 174.961 65.4949 165.343C54.9317 157.682 45.0602 149.111 35.9936 139.727C34.6106 138.292 33.2423 136.827 31.8886 135.329C30.601 133.895 29.3277 132.432 28.0841 130.939C11.8992 111.601 -0.0567516 87.7845 3.52877 63.2439C7.10644 38.7691 26.1816 18.3918 48.893 8.60191C62.0194 2.94601 76.1774 0.414391 90.511 0.0485503C100.992 -0.160914 111.47 0.593454 121.812 2.30213C169.672 9.95552 213.529 33.2084 254.949 58.3855C296.362 83.5627 336.722 111.198 381.742 129.146C426.763 147.102 478.01 154.704 523.681 138.468C569.353 122.239 606.873 77.958 604.642 29.5426C634.933 55.6271 660.674 88.4137 672.074 126.725C683.473 165.035 678.893 209.273 654.272 240.764Z" fill="#595260"/>
<path d="M436.017 190.729C438.958 190.729 441.342 188.344 441.342 185.404C441.342 182.463 438.958 180.079 436.017 180.079C433.076 180.079 430.692 182.463 430.692 185.404C430.692 188.344 433.076 190.729 436.017 190.729Z" fill="#FFD523"/>
<path d="M624.059 123.395C628.606 123.395 632.292 119.709 632.292 115.162C632.292 110.615 628.606 106.929 624.059 106.929C619.512 106.929 615.826 110.615 615.826 115.162C615.826 119.709 619.512 123.395 624.059 123.395Z" fill="#FFD523"/>
<path d="M84.0781 377.219C85.7581 377.219 87.12 375.857 87.12 374.177C87.12 372.497 85.7581 371.136 84.0781 371.136C82.3981 371.136 81.0361 372.497 81.0361 374.177C81.0361 375.857 82.3981 377.219 84.0781 377.219Z" fill="#FFD523"/>
<path d="M171.391 199.307C171.393 201.946 171.074 204.575 170.44 207.136C164.396 206.236 158.374 205.227 152.411 203.983C137.14 200.783 122.243 196.001 107.962 189.715C110.258 182.3 115.137 175.955 121.713 171.83C128.289 167.706 136.126 166.076 143.801 167.237C151.476 168.397 158.481 172.272 163.543 178.156C168.605 184.04 171.39 191.545 171.391 199.307V199.307Z" fill="#FFD523"/>
<path d="M571.378 171.686C573.096 171.686 574.489 170.293 574.489 168.575C574.489 166.857 573.096 165.464 571.378 165.464C569.66 165.464 568.267 166.857 568.267 168.575C568.267 170.293 569.66 171.686 571.378 171.686Z" fill="#B2B1B9"/>
<path d="M286.754 514.113C288.472 514.113 289.865 512.72 289.865 511.002C289.865 509.284 288.472 507.891 286.754 507.891C285.036 507.891 283.643 509.284 283.643 511.002C283.643 512.72 285.036 514.113 286.754 514.113Z" fill="#B2B1B9"/>
<path d="M331.386 557.282C333.105 557.282 334.498 555.889 334.498 554.171C334.498 552.453 333.105 551.06 331.386 551.06C329.668 551.06 328.275 552.453 328.275 554.171C328.275 555.889 329.668 557.282 331.386 557.282Z" fill="#B2B1B9"/>
<path d="M55.5425 434.36C57.2607 434.36 58.6536 432.967 58.6536 431.249C58.6536 429.53 57.2607 428.138 55.5425 428.138C53.8243 428.138 52.4314 429.53 52.4314 431.249C52.4314 432.967 53.8243 434.36 55.5425 434.36Z" fill="#B2B1B9"/>
<path d="M208.464 376.557C210.182 376.557 211.575 375.164 211.575 373.446C211.575 371.728 210.182 370.335 208.464 370.335C206.746 370.335 205.353 371.728 205.353 373.446C205.353 375.164 206.746 376.557 208.464 376.557Z" fill="#B2B1B9"/>
<path d="M193.099 67.7872C194.817 67.7872 196.21 66.3943 196.21 64.6761C196.21 62.9579 194.817 61.565 193.099 61.565C191.38 61.565 189.988 62.9579 189.988 64.6761C189.988 66.3943 191.38 67.7872 193.099 67.7872Z" fill="#B2B1B9"/>
<path d="M381.141 311.437C382.859 311.437 384.252 310.044 384.252 308.326C384.252 306.608 382.859 305.215 381.141 305.215C379.423 305.215 378.03 306.608 378.03 308.326C378.03 310.044 379.423 311.437 381.141 311.437Z" fill="#B2B1B9"/>
<path d="M404.555 365.582C406.273 365.582 407.666 364.189 407.666 362.471C407.666 360.752 406.273 359.359 404.555 359.359C402.836 359.359 401.444 360.752 401.444 362.471C401.444 364.189 402.836 365.582 404.555 365.582Z" fill="#B2B1B9"/>
<path d="M124.124 74.6068C124.147 90.3151 120.436 105.804 113.296 119.795C112.352 121.639 111.352 123.451 110.296 125.232C99.8399 142.889 84.1963 156.895 65.4949 165.343C54.9317 157.682 45.0602 149.111 35.9936 139.727C34.6106 138.292 33.2423 136.827 31.8886 135.329C30.601 133.895 29.3277 132.432 28.0841 130.939C11.8992 111.601 -0.0567294 87.7844 3.5288 63.2438C7.10646 38.7691 26.1817 18.3917 48.8931 8.60181C62.0194 2.94591 76.1775 0.414333 90.511 0.0484924C101.718 9.94599 110.554 22.2398 116.361 36.018C117.093 37.7521 117.766 39.5081 118.403 41.2861C122.2 51.9844 124.135 63.2546 124.124 74.6068V74.6068Z" fill="#FFD523"/>
<path d="M169.489 79.7286C169.489 94.9695 154.606 109.106 127.578 119.547C122.171 121.639 116.383 123.534 110.296 125.232C87.5111 131.583 60.3949 135.102 31.8886 135.329C30.601 133.895 29.3278 132.432 28.0841 130.939C28.3914 130.946 28.6986 130.946 29.0059 130.946C59.9633 130.946 89.3332 127.025 113.296 119.795C117.722 118.457 121.966 117.008 125.998 115.449C150.846 105.857 165.099 92.833 165.099 79.7286C165.099 66.6242 150.845 53.6076 125.998 44.0079C123.539 43.0567 121.008 42.1494 118.403 41.286C117.766 39.5081 117.093 37.752 116.361 36.0179C120.254 37.2325 123.993 38.5301 127.578 39.9105C154.606 50.3516 169.489 64.495 169.489 79.7286Z" fill="#B2B1B9"/>
<path d="M33.592 25.3496C35.3103 25.3496 36.7031 23.9568 36.7031 22.2385C36.7031 20.5203 35.3103 19.1275 33.592 19.1275C31.8738 19.1275 30.481 20.5203 30.481 22.2385C30.481 23.9568 31.8738 25.3496 33.592 25.3496Z" fill="#B2B1B9"/>
<path d="M98.7117 45.105C100.43 45.105 101.823 43.7122 101.823 41.9939C101.823 40.2757 100.43 38.8829 98.7117 38.8829C96.9935 38.8829 95.6006 40.2757 95.6006 41.9939C95.6006 43.7122 96.9935 45.105 98.7117 45.105Z" fill="#B2B1B9"/>
<path d="M65.0544 103.71C81.7631 103.71 95.3083 90.165 95.3083 73.4563C95.3083 56.7475 81.7631 43.2024 65.0544 43.2024C48.3456 43.2024 34.8005 56.7475 34.8005 73.4563C34.8005 90.165 48.3456 103.71 65.0544 103.71Z" fill="#B2B1B9"/>
<path opacity="0.3" d="M623.768 233.579C616.978 235.584 602.008 237.062 585.545 237.969C569.09 238.869 551.039 239.264 533.215 239.645C502.016 240.318 470.82 240.994 439.626 241.672C435.338 241.767 431.036 241.855 426.719 241.935C424.56 240.508 422.402 239.06 420.266 237.582C424.092 237.604 427.919 237.582 431.716 237.508C447.938 237.187 461.671 235.921 477.315 235.321C501.387 234.391 527.376 235.123 552.466 235.496C577.555 235.877 606.142 235.738 623.768 233.579Z" fill="#B2B1B9"/>
<path opacity="0.3" d="M144.934 464.228L45.4833 381.379L142.098 467.546C142.285 467.861 142.545 468.128 142.855 468.322C143.166 468.517 143.518 468.635 143.883 468.666C144.248 468.698 144.616 468.642 144.955 468.503C145.294 468.364 145.595 468.146 145.833 467.867C146.071 467.589 146.24 467.257 146.324 466.901C146.409 466.544 146.407 466.172 146.319 465.817C146.231 465.461 146.059 465.131 145.819 464.855C145.578 464.578 145.275 464.364 144.934 464.228H144.934Z" fill="#B2B1B9"/>
<path d="M69.4445 150.467C71.1627 150.467 72.5555 149.074 72.5555 147.356C72.5555 145.638 71.1627 144.245 69.4445 144.245C67.7263 144.245 66.3334 145.638 66.3334 147.356C66.3334 149.074 67.7263 150.467 69.4445 150.467Z" fill="#B2B1B9"/>
<path d="M330.733 507.841L343.601 507.841L349.723 458.205L330.73 458.206L330.733 507.841Z" fill="#FFB6B6"/>
<path d="M327.45 503.64L331.072 503.64L345.213 497.889L352.792 503.639H352.793C357.077 503.639 361.184 505.34 364.213 508.369C367.242 511.398 368.943 515.505 368.943 519.789V520.313L327.451 520.315L327.45 503.64Z" fill="#B2B1B9"/>
<path d="M234.363 507.841L221.495 507.841L215.373 458.205L234.366 458.206L234.363 507.841Z" fill="#FFB6B6"/>
<path d="M237.645 520.315L196.153 520.313V519.789C196.153 515.505 197.855 511.398 200.883 508.369C203.912 505.34 208.02 503.639 212.303 503.639H212.304L219.883 497.889L234.024 503.64L237.646 503.64L237.645 520.315Z" fill="#B2B1B9"/>
<path d="M280.472 127.45L267.442 137.372L232.83 146.538C232.83 146.538 245.232 233.579 239.379 239.433C233.526 245.286 238.805 245.444 237.628 253.048C236.452 260.652 231.765 280.728 231.765 280.728H335.07C335.07 280.728 335.902 268.251 330.81 265.549C325.717 262.847 335.504 250.235 331.342 248.127C327.181 246.018 333.034 227.726 333.034 227.726L345.72 167.838L311.979 141.439L306.847 129.076L280.472 127.45Z" fill="#FFD523"/>
<path d="M296.73 205.229C299.22 205.229 301.238 203.211 301.238 200.721C301.238 198.231 299.22 196.213 296.73 196.213C294.24 196.213 292.222 198.231 292.222 200.721C292.222 203.211 294.24 205.229 296.73 205.229Z" fill="#B2B1B9"/>
<path d="M231.765 280.728L227.505 390.422C227.505 390.422 209.112 471.441 212.307 473.571C215.502 475.701 216.855 488.401 216.855 488.401L234.96 490.531C234.96 490.531 234.96 482.012 239.22 478.817C243.48 475.622 282.885 325.457 282.885 325.457L321.327 470.644C321.327 470.644 322.29 478.817 325.485 478.817C328.68 478.817 329.745 490.531 329.745 490.531H347.85V478.817C347.85 478.817 355.985 476.237 352.79 467.717C349.595 459.198 335.07 280.728 335.07 280.728H231.765Z" fill="#B2B1B9"/>
<path d="M294.002 120.913C306.06 120.913 315.835 111.139 315.835 99.0809C315.835 87.0232 306.06 77.2485 294.002 77.2485C281.945 77.2485 272.17 87.0232 272.17 99.0809C272.17 111.139 281.945 120.913 294.002 120.913Z" fill="#FFB6B6"/>
<path opacity="0.1" d="M331.342 197.125L335.602 200.321L337.732 185.41L331.342 197.125Z" fill="#B2B1B9"/>
<path d="M234.872 146.453C234.872 146.453 229.547 145.388 226.352 154.973C223.157 164.558 211.442 200.768 211.442 207.158C211.442 213.548 284.398 241.742 284.398 241.742L276.807 215.112L243.392 197.573L234.872 146.453Z" fill="#FFD523"/>
<path d="M287.782 237.794C294.652 237.794 300.221 232.225 300.221 225.356C300.221 218.486 294.652 212.917 287.782 212.917C280.913 212.917 275.344 218.486 275.344 225.356C275.344 232.225 280.913 237.794 287.782 237.794Z" fill="#FFB6B6"/>
<path opacity="0.1" d="M242.418 184.382L243.392 197.573L274.291 213.792L246.808 195.357L242.418 184.382Z" fill="#B2B1B9"/>
<path d="M316.701 186.262H316.3V175.281C316.3 174.446 316.135 173.62 315.816 172.849C315.496 172.078 315.028 171.377 314.438 170.787C313.848 170.197 313.147 169.728 312.376 169.409C311.605 169.09 310.779 168.925 309.944 168.925H286.679C285.844 168.925 285.018 169.09 284.246 169.409C283.475 169.728 282.775 170.197 282.185 170.787C281.594 171.377 281.126 172.078 280.807 172.849C280.487 173.62 280.323 174.446 280.323 175.281V235.525C280.323 236.36 280.487 237.186 280.807 237.957C281.126 238.728 281.594 239.429 282.185 240.019C282.775 240.609 283.475 241.078 284.246 241.397C285.018 241.716 285.844 241.881 286.679 241.881H309.944C310.779 241.881 311.605 241.716 312.376 241.397C313.147 241.078 313.848 240.609 314.438 240.019C315.028 239.429 315.496 238.728 315.816 237.957C316.135 237.186 316.3 236.36 316.3 235.525V194.079H316.701V186.262Z" fill="#B2B1B9"/>
<path d="M345.72 167.838C345.72 167.838 348.915 169.968 351.045 179.553C353.175 189.138 367.019 225.348 361.695 233.868C356.37 242.388 354.798 251.481 336.693 238.701L311.64 215.763L329.745 198.723L337.2 204.048L345.72 167.838Z" fill="#FFD523"/>
<path d="M298.596 195.776C301.537 195.776 303.921 193.392 303.921 190.451C303.921 187.51 301.537 185.126 298.596 185.126C295.655 185.126 293.271 187.51 293.271 190.451C293.271 193.392 295.655 195.776 298.596 195.776Z" fill="#FFD523"/>
<path d="M314.01 214.556C320.88 214.556 326.449 208.987 326.449 202.117C326.449 195.247 320.88 189.678 314.01 189.678C307.141 189.678 301.572 195.247 301.572 202.117C301.572 208.987 307.141 214.556 314.01 214.556Z" fill="#FFB6B6"/>
<path opacity="0.1" d="M241.831 224.195L277.539 239.989L240.839 232.817L241.831 224.195Z" fill="#B2B1B9"/>
<path d="M271.976 103.432L268.978 92.0235C268.196 89.0468 267.408 86.01 267.583 82.9373C267.759 79.8646 269.062 76.6938 271.651 75.0292C274.24 73.3645 278.191 73.7578 279.857 76.3457C280.174 72.2134 283.933 69.0348 287.922 67.9088C291.91 66.7827 296.145 67.228 300.285 67.418C304.425 67.608 308.795 67.4754 312.368 65.3757C312.64 66.1926 312.623 67.0786 312.317 67.8839C312.012 68.6892 311.439 69.3646 310.693 69.796C311.582 70.0383 312.529 69.9342 313.343 69.5047C314.158 69.0752 314.778 68.3523 315.08 67.4824C315.107 69.8756 314.223 72.1895 312.606 73.9544C314.148 73.1894 315.919 73.0254 317.576 73.4944C319.232 73.9633 320.654 75.0317 321.566 76.4915C323.39 79.6529 322.368 83.6232 321.301 87.1134L315.825 105.027C314.995 102.304 314.838 99.4287 314.394 96.6166C313.95 93.8046 313.16 90.9329 311.303 88.7744C309.447 86.6158 306.294 85.3658 303.656 86.4375C302.177 87.0388 301.048 88.2588 299.712 89.1343C296.971 90.9307 293.484 91.1884 290.227 90.8228C286.97 90.4572 283.796 89.5298 280.54 89.1594C278.501 88.9274 276.226 88.9888 274.687 90.3469C273.629 91.4463 272.931 92.8414 272.684 94.3472C271.958 97.3484 271.672 100.439 271.837 103.523" fill="#B2B1B9"/>
</g>
<defs>
<clipPath id="clip0_32_466">
<rect width="678" height="575.097" fill="white"/>
</clipPath>
</defs>
</svg>
