<svg width="794" height="690" viewBox="0 0 794 690" fill="none" xmlns="http://www.w3.org/2000/svg">
<path d="M653.316 439.126C646.196 497.716 617.417 551.522 572.636 589.968C527.856 628.414 470.313 648.718 411.321 646.888C352.329 645.059 296.156 621.228 253.843 580.082C211.531 538.935 186.141 483.448 182.665 424.53C179.19 365.613 197.879 307.526 235.06 261.689C272.24 215.853 325.222 185.582 383.59 176.829C441.957 168.076 501.488 181.473 550.479 214.387C599.469 247.301 634.375 297.35 648.335 354.696C648.682 356.135 649.016 357.573 649.336 359.023L649.334 359.036C650.769 365.413 651.932 371.872 652.823 378.415C655.579 398.548 655.744 418.951 653.316 439.126V439.126Z" fill="#595260"/>
<path d="M410.215 248.358C400.282 241.346 388.879 236.695 376.875 234.76C364.872 232.824 352.585 233.656 340.951 237.191C330.713 240.263 319.557 246.636 314.671 259.968C328.727 253.788 344.261 268.063 345.292 288.108L344.477 288.231C341.066 301.622 343.28 316.91 349.984 326.268C351.013 322.53 352.861 319.068 355.394 316.134C357.928 313.2 361.083 310.866 364.631 309.304C370.743 306.256 377.335 304.299 382.426 298.413C388.461 291.435 391.089 280.496 394.336 270.619C397.583 260.742 402.748 250.326 410.215 248.358Z" fill="#FFD523"/>
<path d="M322.878 355.341C318.588 360.367 313.322 363.213 308.453 366.959C302.874 370.934 298.836 376.71 297.017 383.315C295.898 388.001 296.174 392.934 295.481 397.725C294.789 402.516 292.54 407.733 289.129 408.537C283.747 409.784 280.954 399.73 275.73 398.427C271.579 397.398 266.992 403.574 267.526 409.47C268.059 415.366 273.492 418.599 277.236 415.238C279.618 420.596 276.433 429.416 271.773 430.417C270.924 433.511 270.076 436.592 269.24 439.688C258.87 430.419 248.397 421.005 240.16 408.263C230.986 394.2 226.223 377.717 226.484 360.929C226.829 347.455 230.502 332.435 225.611 321.45C221.694 312.66 213.509 309.844 205.886 309.452C204.497 309.379 203.086 309.37 201.687 309.376C207.748 296.515 214.961 284.23 223.238 272.671C224.856 272.195 226.392 271.476 227.794 270.539C235.545 265.407 240.115 253.69 246.825 246.01C247.257 245.515 247.7 245.036 248.155 244.571C254.909 237.642 263.202 234.652 271.2 231.906C288.91 225.781 307.118 219.608 324.653 222.849L319.567 222.734C311.734 238.469 303.897 254.203 296.055 269.937C294.861 272.351 293.658 274.768 292.445 277.189C287.994 286.137 283.364 295.677 282.626 306.201C282.187 312.434 283.549 319.308 287.391 321.924C290.976 324.35 295.439 322.433 299.414 320.485C301.095 319.674 302.764 318.861 304.447 318.037C310.484 315.097 317.136 312.137 322.768 315.26C327.926 318.114 331.05 325.958 330.862 333.991C330.637 341.795 327.829 349.304 322.878 355.341Z" fill="#FFD523"/>
<path d="M342.804 471.54C327.637 459.503 312.47 447.466 297.303 435.428L297.666 434.746C287.024 437.406 280.635 454.995 280.548 469.994C280.462 484.992 284.585 498.902 285.743 513.664C287.27 533.859 283.364 554.095 274.43 572.271C298.845 550.688 321.035 526.712 340.668 500.703C343.364 497.451 345.558 493.814 347.175 489.911C348.892 485.751 349.013 481.104 347.515 476.861C346.412 474.723 344.792 472.895 342.804 471.54V471.54Z" fill="#FFD523"/>
<path d="M300.111 280.424C297.695 284.323 296.837 288.988 297.708 293.491C298.906 297.178 301.512 300.242 304.958 302.016L313.469 307.582C316.3 309.433 319.364 311.328 322.578 310.467C326.455 309.429 329.714 303.934 329.695 298.47C329.673 292.654 326.532 288.28 323.592 284.524C319.478 279.267 315.364 274.01 311.251 268.754L308.23 271.666C305.048 274.105 302.302 277.067 300.111 280.424V280.424Z" fill="#FFD523"/>
<path d="M611.225 379.754C615.18 381.199 619.135 382.644 623.09 384.088C620.738 397.749 612.404 409.656 602.717 413.171C598.68 414.633 594.355 414.835 590.776 418.042C587.538 420.958 585.488 425.852 583.583 430.538C580.249 438.715 576.915 446.891 573.581 455.068C569.997 463.881 565.584 473.62 558.707 476.126C552.803 478.283 546.848 474.07 543.261 467.769C539.673 461.468 537.991 453.371 536.365 445.48C535.533 453.769 530.717 461.423 524.925 463.646C519.121 465.868 512.788 462.475 509.906 455.619C507.831 450.698 507.468 444.489 505.454 439.508C503.439 434.527 498.364 431.204 495.03 435.253C492.831 437.946 492.534 442.438 491.172 446.03C490.416 448.432 488.929 450.54 486.92 452.058C484.91 453.577 482.478 454.431 479.96 454.503C477.691 454.179 475.512 453.397 473.556 452.204C471.599 451.011 469.906 449.432 468.579 447.564C461.522 438.379 457.55 427.199 457.23 415.621C456.743 410.03 457.562 404.403 459.622 399.183C461.847 394.269 466.216 390.797 469.973 392.231C473.163 387.153 468.989 379.41 464.384 379.499C459.767 379.586 455.627 384.031 451.451 387.327C447.289 390.625 441.765 392.721 438.468 388.558C438.389 389.927 437.77 391.209 436.746 392.121C435.722 393.033 434.378 393.501 433.009 393.423C432.874 393.415 432.739 393.402 432.605 393.383C430.202 392.372 428.037 390.87 426.248 388.975C418.314 382.607 407.007 384.851 399.707 394.231C405.451 378.486 413.252 360.564 425.404 358.155C430.37 357.164 435.428 359.073 440.267 356.909C448.835 353.073 452.614 335.162 446.601 326.867C446.636 334.035 445.48 342.259 441.174 346.645C436.868 351.03 429.421 346.944 430.747 339.859C430.521 340.851 429.987 341.745 429.221 342.415C428.455 343.084 427.497 343.494 426.484 343.586C425.471 343.678 424.455 343.447 423.581 342.926C422.707 342.405 422.021 341.62 421.62 340.685C419.591 336.608 420.54 330.45 422.839 326.144C425.142 322.271 428.184 318.888 431.792 316.189C438.827 310.252 445.963 304.248 453.685 300.91C461.421 297.573 469.94 297.154 476.688 302.194C480.244 304.857 483.166 308.934 486.832 311.343C487.681 312.021 488.654 312.526 489.697 312.827C490.74 313.129 491.833 313.223 492.912 313.102C493.991 312.982 495.036 312.65 495.987 312.126C496.938 311.602 497.777 310.895 498.455 310.047L498.455 310.047C498.507 309.981 498.559 309.915 498.609 309.848C502.119 305.101 501.658 297.376 503.495 291.138C506.77 280.118 518.65 276.198 523.998 284.374C519.48 282.622 514.003 287.56 512.626 294.173C511.237 300.785 513.804 307.936 518.079 310.498C525.265 314.765 533.706 307.199 540.378 300.06C547.344 292.584 554.318 285.113 561.3 277.648C562.425 276.369 563.657 275.189 564.984 274.12C567.083 272.512 569.715 271.762 572.347 272.022C574.979 272.283 577.413 273.533 579.157 275.522C584.631 281.196 586.266 291.684 590.407 299.263C596.414 310.274 606.924 314.034 616.744 317.205C624.066 319.558 631.391 321.921 638.72 324.292C642.611 334.197 645.823 344.355 648.335 354.696C633.822 359.327 620.943 368.023 611.225 379.754V379.754Z" fill="#FFD523"/>
<path d="M616.579 540.608C609.589 551.356 601.739 561.519 593.106 570.997C588.621 568.411 583.109 571.414 578.28 574.272C573.235 577.264 567.269 580.053 562.916 576.257C558.468 572.37 558.012 562.928 560.425 555.773C562.999 549.214 566.846 543.23 571.744 538.164C576.385 532.754 581.329 527.153 587.077 525.523C592.837 523.895 599.501 527.967 600.17 535.956L604.072 536.289C602.25 533.036 604.133 526.976 607.191 526.236C610.717 525.366 613.091 530.35 614.597 534.685C615.268 536.642 615.951 538.615 616.579 540.608Z" fill="#FFD523"/>
<path d="M474.38 467.366C465.965 466.893 460.578 455.82 457.39 445.179C454.203 434.538 451.575 422.49 444.653 416.441C440.699 412.984 435.838 411.993 431.337 410.009C428.768 409.024 426.471 407.44 424.636 405.389C422.801 403.338 421.481 400.879 420.785 398.217L415.743 395.443C407.889 398.262 400.523 402.29 393.912 407.382C386.291 413.757 380.978 422.462 378.793 432.155C376.513 442.639 378.837 454.911 385.344 459.73C390.486 463.537 397.148 462.321 402.392 465.871C408.946 470.306 411.841 481.261 412.176 491.776C412.511 502.29 410.831 512.975 410.705 523.554C410.58 534.132 412.375 545.37 418.14 551.488C425.353 559.143 437.778 554.984 442.831 543.221C445.31 537.451 446.056 530.696 448.117 524.645C451.747 513.99 458.985 506.629 465.029 498.255C471.072 489.881 476.443 478.169 474.38 467.366Z" fill="#FFD523"/>
<path d="M404.686 350.072C405.379 350.882 406.014 351.74 406.585 352.641C407.135 353.918 407.326 355.321 407.138 356.699C406.949 358.076 406.388 359.376 405.515 360.459C406.528 360.522 407.543 360.374 408.496 360.025C409.449 359.675 410.319 359.132 411.052 358.43C412.784 356.876 414.351 355.147 415.727 353.271C416.344 352.646 416.82 351.897 417.125 351.073C417.43 350.25 417.556 349.371 417.495 348.495C417.235 347.322 416.359 346.73 415.806 345.805C415.098 344.041 414.693 342.169 414.611 340.269C414.457 338.48 413.808 336.769 412.735 335.328C411.662 333.888 410.208 332.775 408.538 332.115L408.947 332.245C408.184 332.583 407.545 333.151 407.121 333.869C406.697 334.588 406.508 335.421 406.581 336.252C406.639 337.921 407.529 339.407 407.225 341.065C406.787 343.45 404.251 344.29 403.815 346.675C403.648 347.878 403.961 349.098 404.686 350.072V350.072Z" fill="#FFD523"/>
<path d="M395.256 307.533L395.294 307.53C395.579 307.326 395.848 307.101 396.098 306.856L395.256 307.533Z" fill="#FFD523"/>
<path d="M396.413 319.11C397.521 318.349 398.4 317.299 398.952 316.073C399.504 314.848 399.709 313.494 399.544 312.16C399.263 309.356 397.335 307.262 395.294 307.53C394.65 308.044 393.886 308.386 393.073 308.523C392.26 308.66 391.426 308.589 390.649 308.315C389.462 307.853 388.214 306.88 387.042 307.676C386.352 308.293 385.827 309.072 385.516 309.944C384.979 311.103 384.442 312.263 383.904 313.423C383.666 313.832 383.56 314.306 383.601 314.778C383.654 314.972 383.756 315.148 383.897 315.291C384.039 315.434 384.214 315.538 384.407 315.593L391.234 318.525C392.002 318.996 392.864 319.293 393.758 319.394C394.653 319.495 395.56 319.398 396.413 319.11V319.11Z" fill="#FFD523"/>
<path d="M555.873 496.092C554.996 494.177 554.119 492.261 553.242 490.346C552.418 488.15 551.174 486.137 549.579 484.418C548.88 483.675 547.915 483.24 546.895 483.208C545.875 483.177 544.885 483.552 544.142 484.25L544.141 484.25L544.076 484.313L544.087 485.348C546.633 488.827 548.158 492.947 548.492 497.245C548.523 499.099 548.211 500.977 548.21 502.835C548.131 503.688 548.221 504.547 548.475 505.365C548.729 506.182 549.141 506.941 549.689 507.599C551.269 508.951 553.487 507.501 554.956 505.584C556.25 504.019 556.981 502.065 557.03 500.034C556.919 498.655 556.525 497.313 555.873 496.092V496.092Z" fill="#FFD523"/>
<path d="M572.7 500.46C573.107 498.813 573.174 497.101 572.896 495.428C573.08 493.231 573.918 491.14 575.303 489.424C576.667 487.813 577.771 485.999 578.577 484.047C578.924 483.155 578.997 482.18 578.785 481.247C578.521 480.393 577.691 479.918 577.113 480.501L578.104 481.32C576.686 480.888 575.188 480.782 573.724 481.01C572.878 481.223 572.096 481.637 571.444 482.215C570.793 482.794 570.29 483.522 569.979 484.336C569.645 485.624 569.201 486.881 568.651 488.093C567.854 489.332 566.563 489.622 565.646 490.683C564.993 491.644 564.589 492.751 564.47 493.907C564.351 495.062 564.522 496.229 564.966 497.302C565.747 499.064 567.156 500.472 568.917 501.253C570.171 501.88 571.894 502.111 572.7 500.46Z" fill="#FFD523"/>
<path d="M602.061 513.291C602.387 514.58 602.883 515.821 603.534 516.981C604.817 518.624 606.907 517.958 608.719 517.813C610.354 517.751 611.976 518.133 613.412 518.918C614.848 519.704 616.045 520.863 616.876 522.273C616.599 518.77 615.485 515.384 613.628 512.4C611.771 509.416 609.224 506.921 606.203 505.125C602.229 503.195 597.943 501.99 593.545 501.566L592.773 501.669C594.017 507.453 600.027 508.046 602.061 513.291Z" fill="#FFD523"/>
<path d="M471.693 509.235L471.701 509.261L471.969 508.867L471.693 509.235Z" fill="#FFD523"/>
<path d="M466.003 517.627C464.776 519.337 463.682 521.137 462.73 523.012C461.399 526.076 460.38 529.265 459.686 532.532C459.227 534.382 458.868 536.772 459.935 537.828C460.246 538.092 460.643 538.234 461.051 538.228C461.459 538.221 461.851 538.066 462.154 537.792C462.89 537.179 463.52 536.448 464.018 535.629C466.806 531.922 469.111 527.876 470.876 523.587C472.727 519.034 473.017 513.996 471.701 509.261C469.802 512.05 467.902 514.839 466.003 517.627Z" fill="#FFD523"/>
<path d="M449.908 274.004C450.557 274.809 451.426 275.407 452.41 275.724C453.394 276.042 454.449 276.064 455.446 275.789C457.516 275.164 459.463 274.187 461.202 272.902C462.61 272.1 463.851 271.033 464.857 269.761C465.419 268.996 465.824 268.128 466.049 267.207C466.275 266.285 466.316 265.328 466.17 264.39C465.913 263.477 465.427 262.646 464.758 261.973C464.09 261.301 463.261 260.81 462.35 260.548C459.824 259.458 457.299 258.369 454.774 257.28L456.872 255.799C455.048 254.52 452.66 256.203 451.155 258.461C450.186 259.936 449.442 261.547 448.945 263.241C448.315 264.998 448.075 266.87 448.241 268.729C448.407 270.588 448.976 272.388 449.908 274.004V274.004Z" fill="#FFD523"/>
<path d="M497.986 264.012C498.627 264.914 499.587 265.538 500.671 265.758C501.755 265.978 502.882 265.777 503.824 265.196C504.63 264.729 505.329 264.097 505.875 263.341C506.421 262.586 506.802 261.724 506.992 260.812C507.424 258.774 506.679 256.364 505.246 256.012L505.81 254.124C503.068 253.283 499.633 252.769 497.725 255.992C497.063 257.235 496.739 258.629 496.784 260.037C496.83 261.444 497.245 262.815 497.986 264.012V264.012Z" fill="#FFD523"/>
<path d="M575.628 708.313C584.237 707.089 590.526 701.241 589.674 695.252C588.822 689.263 581.152 685.401 572.543 686.626C563.934 687.851 557.646 693.698 558.498 699.687C559.35 705.676 567.019 709.538 575.628 708.313Z" fill="#B2B1B9"/>
<path d="M473.212 697.988C481.822 696.763 488.11 690.916 487.258 684.927C486.406 678.938 478.736 675.076 470.127 676.3C461.518 677.525 455.23 683.373 456.082 689.362C456.934 695.351 464.603 699.213 473.212 697.988Z" fill="#B2B1B9"/>
<path d="M603.946 625.459C612.555 624.235 618.844 618.387 617.992 612.398C617.14 606.409 609.47 602.547 600.861 603.772C592.252 604.996 585.964 610.844 586.816 616.833C587.668 622.822 595.337 626.684 603.946 625.459Z" fill="#B2B1B9"/>
<path d="M638.408 592.92C642.231 592.903 645.31 588.435 645.286 582.939C645.262 577.443 642.143 573.002 638.32 573.019C634.497 573.035 631.418 577.504 631.442 583C631.466 588.495 634.584 592.937 638.408 592.92Z" fill="#B2B1B9"/>
<path d="M653.705 529.686C657.528 529.67 660.608 525.201 660.584 519.705C660.56 514.21 657.441 509.768 653.618 509.785C649.795 509.802 646.715 514.27 646.74 519.766C646.764 525.262 649.882 529.703 653.705 529.686Z" fill="#B2B1B9"/>
<path d="M535.952 640.685C539.775 640.668 542.855 636.199 542.831 630.704C542.807 625.208 539.688 620.767 535.865 620.783C532.042 620.8 528.962 625.269 528.986 630.764C529.011 636.26 532.129 640.701 535.952 640.685Z" fill="#B2B1B9"/>
<path d="M585.383 665.561C589.206 665.545 592.286 661.076 592.262 655.58C592.238 650.085 589.119 645.643 585.296 645.66C581.473 645.677 578.393 650.145 578.417 655.641C578.441 661.137 581.56 665.578 585.383 665.561Z" fill="#B2B1B9"/>
<path d="M77.9208 561.776C86.5298 560.551 92.8181 554.703 91.9661 548.714C91.1142 542.725 83.4446 538.863 74.8356 540.088C66.2265 541.313 59.9382 547.16 60.7902 553.149C61.6421 559.138 69.3117 563 77.9208 561.776Z" fill="#B2B1B9"/>
<path d="M106.243 478.919C114.852 477.694 121.14 471.847 120.288 465.858C119.436 459.869 111.766 456.007 103.157 457.231C94.5483 458.456 88.26 464.304 89.112 470.293C89.964 476.282 97.6336 480.144 106.243 478.919Z" fill="#B2B1B9"/>
<path d="M140.7 446.382C144.523 446.365 147.603 441.897 147.578 436.401C147.554 430.905 144.436 426.464 140.612 426.481C136.789 426.497 133.71 430.966 133.734 436.462C133.758 441.957 136.877 446.399 140.7 446.382Z" fill="#B2B1B9"/>
<path d="M155.998 383.148C159.821 383.132 162.9 378.663 162.876 373.167C162.852 367.672 159.733 363.23 155.91 363.247C152.087 363.264 149.008 367.733 149.032 373.228C149.056 378.724 152.175 383.165 155.998 383.148Z" fill="#B2B1B9"/>
<path d="M38.245 494.147C42.068 494.13 45.1477 489.661 45.1236 484.166C45.0995 478.67 41.9807 474.229 38.1577 474.245C34.3346 474.262 31.2549 478.731 31.2791 484.227C31.3032 489.722 34.422 494.164 38.245 494.147Z" fill="#B2B1B9"/>
<path d="M87.676 519.024C91.4991 519.007 94.5787 514.538 94.5545 509.042C94.5304 503.547 91.4118 499.105 87.5887 499.122C83.7657 499.139 80.686 503.608 80.7101 509.103C80.7342 514.599 83.853 519.04 87.676 519.024Z" fill="#B2B1B9"/>
<path d="M745.767 243.041C754.376 241.816 760.665 235.968 759.813 229.979C758.961 223.99 751.291 220.128 742.682 221.353C734.073 222.578 727.785 228.425 728.637 234.414C729.489 240.403 737.158 244.265 745.767 243.041Z" fill="#B2B1B9"/>
<path d="M643.346 232.718C651.955 231.494 658.244 225.646 657.392 219.657C656.54 213.668 648.87 209.806 640.261 211.031C631.652 212.255 625.364 218.103 626.216 224.092C627.068 230.081 634.737 233.943 643.346 232.718Z" fill="#B2B1B9"/>
<path d="M774.089 160.182C782.698 158.957 788.986 153.109 788.134 147.121C787.282 141.132 779.613 137.27 771.004 138.494C762.395 139.719 756.106 145.567 756.958 151.556C757.81 157.545 765.48 161.407 774.089 160.182Z" fill="#B2B1B9"/>
<path d="M706.091 175.412C709.914 175.395 712.994 170.926 712.97 165.431C712.946 159.935 709.827 155.494 706.004 155.51C702.181 155.527 699.101 159.996 699.125 165.492C699.15 170.987 702.268 175.429 706.091 175.412Z" fill="#B2B1B9"/>
<path d="M686.458 245.758C690.281 245.741 693.361 241.272 693.337 235.777C693.313 230.281 690.194 225.84 686.371 225.856C682.548 225.873 679.468 230.342 679.492 235.838C679.517 241.333 682.635 245.775 686.458 245.758Z" fill="#B2B1B9"/>
<path d="M45.4772 572.644C28.7574 570.645 18.3841 565.191 14.5604 556.357C7.0198 538.936 26.3253 512.258 71.9396 477.064L74.9515 480.967C32.5803 513.66 12.7396 539.738 19.0843 554.399C23.0997 563.672 37.762 568.576 61.4961 568.578C85.0571 568.582 116.83 563.996 155.932 554.949C236.431 536.322 338.865 500.916 444.364 455.253C549.859 409.59 645.78 359.139 714.459 313.194C727.65 304.368 739.689 295.798 750.24 287.727C764.056 277.425 777.026 266.037 789.029 253.67C805.27 236.367 811.733 222.32 807.718 213.045C801.013 197.555 765.411 194.681 707.463 204.956L706.603 200.101C768.774 189.08 804.317 192.775 812.243 211.087C817.168 222.465 810.567 237.928 792.624 257.045C780.437 269.608 767.266 281.177 753.236 291.642C742.603 299.778 730.478 308.407 717.2 317.292C648.281 363.398 552.082 414.001 446.322 459.777C340.559 505.556 237.824 541.061 157.043 559.753C117.577 568.884 85.4303 573.513 61.4952 573.508C56.1435 573.535 50.7949 573.247 45.4772 572.644V572.644Z" fill="#595260"/>
</svg>
