<?xml version="1.0" standalone="no"?>
<!DOCTYPE svg PUBLIC "-//W3C//DTD SVG 20010904//EN"
 "http://www.w3.org/TR/2001/REC-SVG-20010904/DTD/svg10.dtd">
<svg version="1.0" xmlns="http://www.w3.org/2000/svg" viewBox="0 0 2000.000000 2000.000000"
 preserveAspectRatio="xMidYMid meet">

<g transform="translate(0.000000,2000.000000) scale(0.100000,-0.100000)"
fill="#000000" stroke="none">
<path d="M5225 14855 c-31 -11 -505 -480 -2408 -2382 -1403 -1403 -2375 -2381
-2383 -2400 -18 -41 -18 -105 0 -146 8 -19 980 -997 2388 -2404 2086 -2085
2378 -2373 2413 -2382 41 -10 93 -4 130 17 11 6 171 163 357 349 282 284 338
344 347 378 13 49 13 51 0 100 -9 35 -260 289 -1949 1980 -1108 1108 -1944
1952 -1950 1968 -13 36 -13 98 0 134 6 16 842 860 1950 1968 1689 1691 1940
1945 1949 1980 13 49 13 51 0 100 -9 34 -65 94 -347 378 -186 186 -348 344
-362 351 -42 22 -92 26 -135 11z"/>
<path d="M14705 14865 c-5 -2 -23 -6 -40 -10 -22 -5 -120 -96 -368 -343 -186
-185 -344 -348 -352 -362 -22 -42 -27 -86 -15 -132 10 -39 185 -217 1950
-1983 1108 -1108 1944 -1952 1950 -1968 5 -16 10 -46 10 -67 0 -21 -5 -51 -10
-67 -6 -16 -842 -860 -1950 -1968 -1689 -1691 -1940 -1945 -1949 -1980 -13
-49 -13 -51 0 -100 9 -34 65 -94 347 -378 186 -186 346 -343 357 -349 37 -21
89 -27 130 -17 35 9 327 297 2413 2382 1408 1407 2380 2385 2388 2404 18 41
18 105 0 146 -8 19 -980 997 -2388 2404 -2071 2070 -2378 2373 -2413 2382 -42
11 -44 12 -60 6z"/>
<path d="M5846 12990 c-14 -18 -26 -38 -26 -45 0 -8 23 -44 52 -82 29 -37 591
-771 1250 -1631 659 -860 1199 -1566 1201 -1571 1 -4 -438 -582 -977 -1285
-690 -901 -978 -1285 -978 -1302 0 -14 10 -36 23 -50 l23 -24 3593 2 3594 3
39 41 c51 55 52 68 48 524 -3 356 -4 377 -23 410 -12 19 -36 43 -55 55 -35 20
-43 20 -2554 25 l-2519 5 545 710 545 710 2854 5 c2848 5 2854 5 2889 25 19
12 43 36 55 55 19 34 20 51 20 455 0 383 -2 423 -18 452 -9 18 -29 41 -44 50
-26 17 -161 18 -2481 23 l-2454 5 538 702 539 703 1015 0 1016 0 44 23 c85 43
85 39 88 467 4 456 3 469 -48 524 l-39 41 -1308 0 -1308 0 -54 -29 c-30 -15
-74 -49 -98 -75 -24 -25 -435 -557 -914 -1181 -479 -624 -872 -1135 -874
-1135 -2 0 -395 511 -874 1135 -479 624 -890 1156 -914 1181 -24 26 -68 60
-98 75 l-54 29 -616 3 -617 3 -26 -31z"/>
</g>
</svg>
